<svg width="48" height="48" viewBox="0 0 48 48" version="1.1" xmlns="http://www.w3.org/2000/svg"  xmlns:xlink="http://www.w3.org/1999/xlink">
<title>metering</title>
<g id="metering" stroke="none" stroke-width="1" fill="none" fill-rule="evenodd">
<path d="M23.8,10 C36.2,10 46.2,20 46.2,32.4 C46.2,33.4 45.4,34.2 44.4,34.2 L44.4,34.2 L35.8,34.2 C34.8,34.2 34,33.4 34,32.4 C34,31.4 34.8,30.6 35.8,30.6 L35.8,30.6 L42.6,30.6 C41.8,21 33.6,13.4 23.8,13.4 C14,13.4 6,21 5,30.4 L5,30.4 L19,30.4 C19.6,28.4 21.6,27 23.8,27 C24.6,27 25.4,27.2 26,27.6 L26,27.6 L33,20.6 C33.6,20 34.8,20 35.4,20.6 C36,21.2 36,22.4 35.4,23 L35.4,23 L28.4,30 C28.8,30.6 29,31.4 29,32.2 C29,35 26.6,37.4 23.8,37.4 C21.6,37.4 19.8,36 19,34 L19,34 L3.4,34 C2.4,34 1.6,33.2 1.6,32.2 C1.6,20 11.6,10 23.8,10 Z M23.8,30.6 C23,30.6 22.2,31.2 22,32.4 C22,33.4 22.8,34.2 23.8,34.2 C24.8,34.2 25.6,33.4 25.6,32.4 C25.6,31.4 24.8,30.6 23.8,30.6 Z M12,20.4 C12.6,19.6 13.8,19.6 14.4,20.4 L14.4,20.4 L16.6,22.6 C17.2,23.2 17.2,24.4 16.6,25 C16.2,25.4 15.8,25.6 15.4,25.6 C15,25.6 14.6,25.4 14.2,25 L14.2,25 L12,22.8 C11.4,22.2 11.4,21 12,20.4 Z M24,15.4 C25,15.4 25.8,16.2 25.8,17.2 L25.8,17.2 L25.8,20.4 C25.8,21.4 25,22.2 24,22.2 C23,22.2 22.2,21.4 22.2,20.4 L22.2,20.4 L22.2,17.2 C22.2,16.2 23,15.4 24,15.4 Z" id="Combined-Shape" fill="#1776BF" fill-rule="nonzero"></path>
</g>
</svg>