<svg id="Layer_1" data-name="Layer 1" xmlns="http://www.w3.org/2000/svg" viewBox="0 0 489.72 50.68"><defs><style>.cls-1{fill:#011f3d;}</style></defs><path class="cls-1" d="M19.83,33.33,14.88,17.42a1.56,1.56,0,0,1-.07-.34.79.79,0,0,1,.79-.76h3.54a1,1,0,0,1,1,.72l2.89,9.83,3.09-9.79a1.05,1.05,0,0,1,1.06-.76h2.27a1.05,1.05,0,0,1,1.07.76l3.09,9.79L36.53,17a1,1,0,0,1,1-.72H41.1a.79.79,0,0,1,.79.76,2.57,2.57,0,0,1-.07.34l-5,15.91a1.1,1.1,0,0,1-1.13.86h-3.1a1.1,1.1,0,0,1-1.13-.86l-3.16-9.41-3.16,9.41a1.1,1.1,0,0,1-1.14.86H21A1.09,1.09,0,0,1,19.83,33.33Zm23.68-7.52V24.6c.2-5.43,3.6-8.62,8.93-8.62,6,0,9,3.95,9,9.17V26a.85.85,0,0,1-.86.86h-11v.24c.07,2,1,3.61,2.89,3.61a3,3,0,0,0,2.41-1.24A1.11,1.11,0,0,1,56,28.9h4.26a.7.7,0,0,1,.75.75c-.1,1.59-2.88,4.88-8.48,4.88C47.05,34.53,43.64,31.58,43.51,25.81Zm11.85-2.38v-.06c0-2.24-1.06-3.65-2.92-3.65s-2.89,1.41-2.89,3.65v.06Zm14.88,8.8v1.1a.85.85,0,0,1-.86.86H65.5a.85.85,0,0,1-.86-.86V10.65a.85.85,0,0,1,.86-.86h4.19a.85.85,0,0,1,.86.86V18a6.58,6.58,0,0,1,5-2c4.5,0,7.15,3.16,7.32,8,0,.93,0,1.55,0,2.44-.21,5.08-2.82,8.07-7.32,8.07A6.52,6.52,0,0,1,70.24,32.23Zm6.6-5.91a10.83,10.83,0,0,0,0-2.13c-.14-2-.82-3.61-3.13-3.61-2.16,0-3.09,1.55-3.16,3.27,0,.89,0,1.68,0,2.57.11,1.83.9,3.51,3.16,3.51S76.7,28.35,76.84,26.32Zm9.87,7V11a.84.84,0,0,1,.85-.85h3.72a1.33,1.33,0,0,1,1.2.75l6,10.83,6-10.83a1.35,1.35,0,0,1,1.21-.75h3.67a.86.86,0,0,1,.9.85V33.33a.86.86,0,0,1-.9.86h-4.09a.86.86,0,0,1-.89-.86V20.44l-3.85,7.19a1.35,1.35,0,0,1-1.2.79H97.63a1.31,1.31,0,0,1-1.2-.79l-3.88-7.19V33.33a.85.85,0,0,1-.86.86H87.56A.85.85,0,0,1,86.71,33.33Zm27.35-7.52V24.6c.21-5.43,3.61-8.62,8.94-8.62,6,0,9,3.95,9,9.17V26a.85.85,0,0,1-.86.86h-11v.24c.07,2,1,3.61,2.89,3.61a3,3,0,0,0,2.4-1.24,1.11,1.11,0,0,1,1.1-.55h4.26a.71.71,0,0,1,.76.75c-.1,1.59-2.89,4.88-8.49,4.88C117.6,34.53,114.2,31.58,114.06,25.81Zm11.86-2.38v-.06c0-2.24-1.07-3.65-2.92-3.65s-2.89,1.41-2.89,3.65v.06Zm11.24,4v-6.6h-2.68a.86.86,0,0,1-.9-.86V17.18a.86.86,0,0,1,.9-.86h2.68V10.65a.85.85,0,0,1,.86-.86h4a.85.85,0,0,1,.86.86v5.67h4.3a.86.86,0,0,1,.89.86V20a.86.86,0,0,1-.89.86h-4.3v6.12c0,1.58.55,2.54,2,2.54h2.65a.83.83,0,0,1,.85.86v3a.85.85,0,0,1-.85.86h-3.2C139.8,34.19,137.16,32.16,137.16,27.42Zm14,5.91V10.65a.85.85,0,0,1,.86-.86h4.4a.83.83,0,0,1,.85.86v7.66A6.91,6.91,0,0,1,162.72,16c4,0,6.91,2.71,6.91,7.76v9.59a.85.85,0,0,1-.86.86h-4.43a.85.85,0,0,1-.86-.86V24c0-2.13-1.06-3.37-3-3.37s-3.17,1.2-3.17,3.37v9.38a.83.83,0,0,1-.85.86H152A.85.85,0,0,1,151.18,33.33ZM172.9,26.8a22.76,22.76,0,0,1,0-3.09C173.17,18.9,176.4,16,182,16s8.83,2.92,9.11,7.73c0,.89,0,2.2,0,3.09-.28,4.81-3.3,7.73-9.11,7.73S173.17,31.61,172.9,26.8ZM185,26.63c0-.69,0-2.06,0-2.75-.14-2.4-1-3.71-3.06-3.71s-2.92,1.31-3,3.71c0,.69,0,2.06,0,2.75.1,2.47,1,3.71,3,3.71S184.89,29.1,185,26.63Zm8.87-.17c0-.89,0-1.51,0-2.44.17-4.88,2.78-8,7.28-8a6.58,6.58,0,0,1,5,2V10.65a.84.84,0,0,1,.86-.86h4.19a.85.85,0,0,1,.86.86V33.33a.85.85,0,0,1-.86.86H207.4a.85.85,0,0,1-.86-.86v-1.1a6.52,6.52,0,0,1-5.36,2.3C196.68,34.53,194.1,31.54,193.9,26.46Zm12.33,0c0-.89,0-1.68,0-2.57a3.08,3.08,0,0,0-3.16-3.27c-2.3,0-3,1.58-3.13,3.61a12.63,12.63,0,0,0,0,2.13c.14,2,.83,3.61,3.13,3.61S206.13,28.25,206.23,26.42Zm9,3.54a.82.82,0,0,1,.82-.86H220a.48.48,0,0,1,.38.18c.86.51,1.65,1.51,3.33,1.51,1.27,0,2.27-.52,2.27-1.51s-.62-1.55-4.4-2.31c-3.61-.75-5.91-2.37-5.91-5.46,0-2.75,2.65-5.53,7.77-5.53s7.9,2.88,8,4.5a.79.79,0,0,1-.76.86h-3.57a.87.87,0,0,1-.52-.17c-.89-.42-1.51-1.45-3.16-1.45-1.23,0-2,.62-2,1.48s.49,1.48,4.33,2.2c4.75.83,6.4,3.09,6.4,5.53,0,3.3-3.06,5.6-8.6,5.6C217.61,34.53,215.34,31.48,215.24,30ZM235,33.33V29a.85.85,0,0,1,.86-.86h4.37a.85.85,0,0,1,.86.86v4.36a.85.85,0,0,1-.86.86h-4.37A.85.85,0,0,1,235,33.33Zm9.9-20.44V9.79a.84.84,0,0,1,.86-.86h4.12a.85.85,0,0,1,.86.86v3.1a.82.82,0,0,1-.86.85h-4.12A.81.81,0,0,1,244.93,12.89Zm0,20.44V17.18a.83.83,0,0,1,.86-.86h4a.85.85,0,0,1,.86.86V33.33a.85.85,0,0,1-.86.86h-4A.83.83,0,0,1,245,33.33Zm9.21-6.53a22.76,22.76,0,0,1,0-3.09c.27-4.81,3.5-7.73,9.07-7.73s8.83,2.92,9.1,7.73c0,.89,0,2.2,0,3.09-.27,4.81-3.29,7.73-9.1,7.73S254.45,31.61,254.18,26.8Zm12.13-.17c0-.69,0-2.06,0-2.75-.14-2.4-1-3.71-3.06-3.71s-2.92,1.31-3,3.71c0,.69,0,2.06,0,2.75.11,2.47,1,3.71,3,3.71S266.17,29.1,266.31,26.63Zm17.18,6.7V11a.85.85,0,0,1,.86-.85H289a.85.85,0,0,1,.89.85V33.33a.86.86,0,0,1-.89.86h-4.61A.85.85,0,0,1,283.49,33.33Zm10.76,0V17.18a.83.83,0,0,1,.86-.86h3.95a.86.86,0,0,1,.89.86v1.31A7.1,7.1,0,0,1,305.66,16c3.91,0,6.8,2.71,6.8,7.76v9.59a.85.85,0,0,1-.86.86h-4.33a.85.85,0,0,1-.86-.86V24c0-2.13-1.06-3.37-3.06-3.37s-3.09,1.2-3.09,3.37v9.38a.85.85,0,0,1-.86.86h-4.29A.83.83,0,0,1,294.25,33.33Zm23.92-5.91v-6.6h-2.68a.86.86,0,0,1-.9-.86V17.18a.86.86,0,0,1,.9-.86h2.68V10.65a.85.85,0,0,1,.86-.86h4a.85.85,0,0,1,.86.86v5.67h4.3a.86.86,0,0,1,.89.86V20a.86.86,0,0,1-.89.86h-4.3v6.12c0,1.58.55,2.54,2,2.54h2.65a.84.84,0,0,1,.86.86v3a.85.85,0,0,1-.86.86h-3.2C320.81,34.19,318.17,32.16,318.17,27.42Zm13.3-1.61V24.6c.2-5.43,3.61-8.62,8.93-8.62,6,0,9,3.95,9,9.17V26a.85.85,0,0,1-.86.86h-11v.24c.06,2,1,3.61,2.88,3.61a3,3,0,0,0,2.41-1.24,1.11,1.11,0,0,1,1.1-.55h4.26a.7.7,0,0,1,.75.75c-.1,1.59-2.88,4.88-8.48,4.88C335,34.53,331.61,31.58,331.47,25.81Zm11.85-2.38v-.06c0-2.24-1.06-3.65-2.92-3.65s-2.88,1.41-2.88,3.65v.06Zm9,12.58a.87.87,0,0,1,.9-.86h4.36c.45,0,.69.21.9.69a2.57,2.57,0,0,0,2.74,1.72c2,0,3.1-.86,3.1-3.37v-2.3a6.51,6.51,0,0,1-5,1.92c-4.71,0-7.08-2.85-7.32-8,0-.69,0-1.13,0-1.82.24-4.88,2.61-8,7.32-8a6.61,6.61,0,0,1,5.36,2.47V17.18a.85.85,0,0,1,.86-.86h3.95a.88.88,0,0,1,.89.86V33.71c0,5.26-3.26,8-9,8C354.32,41.75,352.4,37.45,352.29,36Zm12-10c0-.48,0-1.61,0-2.09-.11-1.76-1-3.34-3.16-3.34s-3,1.58-3.13,3.61a10,10,0,0,0,0,1.55c.1,2,.82,3.61,3.13,3.61S364.18,27.73,364.29,26Zm10.1,7.32V17.18a.84.84,0,0,1,.86-.86h3.95a.89.89,0,0,1,.9.86v1.38a6.43,6.43,0,0,1,5.08-2.24h1.51a.85.85,0,0,1,.86.86v3.54a.85.85,0,0,1-.86.86h-3.33a2.67,2.67,0,0,0-2.95,3v8.8a.86.86,0,0,1-.9.86h-4.26A.84.84,0,0,1,374.39,33.33Zm14.16-4.12c0-3.27,2.92-5.12,7.29-5.81l4.29-.65v-.48c0-1.65-.58-2.55-2.4-2.55s-2.27,1.14-3.1,1.58a.33.33,0,0,1-.37.28h-3.75a.72.72,0,0,1-.76-.76c.07-1.58,2.31-4.84,8.05-4.84,5.91,0,8.28,2.92,8.28,6.9V33.33a.85.85,0,0,1-.86.86h-4a.85.85,0,0,1-.86-.86v-1.2a6.26,6.26,0,0,1-5.32,2.4C391.34,34.53,388.55,32.2,388.55,29.21Zm11.65-2.65v-.48l-2.92.52c-2.16.37-3.09,1.16-3.09,2.16,0,1.17,1.13,1.86,2.47,1.86C398.69,30.62,400.2,29.31,400.2,26.56Zm11.65.86v-6.6h-2.68a.86.86,0,0,1-.89-.86V17.18a.86.86,0,0,1,.89-.86h2.68V10.65a.85.85,0,0,1,.86-.86h4a.85.85,0,0,1,.86.86v5.67h4.29a.86.86,0,0,1,.9.86V20a.86.86,0,0,1-.9.86h-4.29v6.12c0,1.58.55,2.54,2,2.54h2.64a.84.84,0,0,1,.86.86v3a.85.85,0,0,1-.86.86H419C414.5,34.19,411.85,32.16,411.85,27.42Zm14-14.53V9.79a.83.83,0,0,1,.86-.86h4.12a.85.85,0,0,1,.86.86v3.1a.83.83,0,0,1-.86.85H426.7A.81.81,0,0,1,425.84,12.89Zm0,20.44V17.18a.84.84,0,0,1,.86-.86h4.06a.85.85,0,0,1,.86.86V33.33a.85.85,0,0,1-.86.86h-4.06A.84.84,0,0,1,425.87,33.33Zm9.21-6.53a26.54,26.54,0,0,1,0-3.09c.28-4.81,3.51-7.73,9.08-7.73s8.83,2.92,9.1,7.73c0,.89,0,2.2,0,3.09-.27,4.81-3.3,7.73-9.1,7.73S435.36,31.61,435.08,26.8Zm12.14-.17c0-.69,0-2.06,0-2.75-.14-2.4-1-3.71-3.06-3.71s-2.92,1.31-3,3.71c0,.69,0,2.06,0,2.75.11,2.47,1,3.71,3,3.71S447.08,29.1,447.22,26.63Zm9.48,6.7V17.18a.84.84,0,0,1,.86-.86h3.95a.86.86,0,0,1,.9.86v1.31a7.07,7.07,0,0,1,5.7-2.51c3.92,0,6.8,2.71,6.8,7.76v9.59a.85.85,0,0,1-.85.86h-4.33a.85.85,0,0,1-.86-.86V24c0-2.13-1.07-3.37-3.06-3.37s-3.09,1.2-3.09,3.37v9.38a.85.85,0,0,1-.86.86h-4.3A.84.84,0,0,1,456.7,33.33Z"/></svg>